<svg xmlns="http://www.w3.org/2000/svg" xmlns:xlink="http://www.w3.org/1999/xlink" contentScriptType="text/ecmascript" zoomAndPan="magnify" contentStyleType="text/css" viewBox="0.00 0.00 1024.00 1024.00" preserveAspectRatio="xMidYMid meet" version="1.1">
	<path fill="#23282e" d="   M 1024.00 0.00   L 1024.00 1024.00   L 0.00 1024.00   L 0.00 0.00   L 1024.00 0.00   Z"/>
	<path fill="#1e2126" d="   M 168.07 837.66   C 168.13 804.94 167.79 778.33 167.98 745.66   C 168.20 709.95 167.85 691.67 168.00 650.97   Q 168.23 586.44 168.04 522.03   C 167.92 484.51 168.20 456.99 168.00 426.17   Q 167.90 411.19 168.20 401.83   C 168.55 391.19 167.84 381.30 167.97 369.40   Q 168.30 339.46 167.97 315.80   C 167.78 302.20 168.60 290.17 168.07 277.14   Q 167.94 274.07 167.93 261.69   Q 167.88 219.77 168.02 195.77   C 168.05 189.86 168.79 185.04 176.07 185.03   Q 231.51 184.96 255.97 185.08   C 282.96 185.21 308.07 184.92 334.68 185.06   Q 372.30 185.27 393.48 185.21   Q 440.98 185.08 448.75 185.05   Q 481.23 184.94 491.39 184.99   Q 509.03 185.07 528.13 184.91   C 544.64 184.77 559.35 185.21 577.09 185.11   Q 613.82 184.90 625.25 185.01   Q 638.30 185.14 641.70 185.12   Q 696.97 184.78 737.10 185.02   C 779.17 185.27 815.57 184.59 854.68 185.14   A 1.21 1.21 0.0 0 1 855.88 186.38   C 855.50 205.73 856.19 226.58 856.06 247.39   Q 855.64 315.12 855.71 346.80   Q 855.76 369.97 855.90 388.55   C 856.19 426.12 855.52 462.66 855.74 500.72   C 855.86 521.37 855.30 541.08 855.72 562.63   C 856.07 580.91 855.52 601.73 855.86 618.40   Q 856.10 630.55 855.71 644.23   Q 855.48 652.16 855.64 670.05   Q 856.15 727.48 855.37 826.42   Q 855.33 832.02 854.36 837.62   A 0.97 0.96 -88.8 0 1 853.53 838.42   Q 849.39 838.95 844.47 838.96   Q 711.23 839.23 398.37 839.10   Q 390.00 839.09 371.92 839.35   Q 361.46 839.49 344.42 839.27   Q 307.52 838.81 276.12 839.04   C 237.28 839.32 207.67 838.90 169.54 839.12   A 1.46 1.46 0.0 0 1 168.07 837.66   Z"/>
	<g>
		<path fill="#1daa9f" d="   M 647.57 387.80   Q 659.17 397.13 663.44 401.80   Q 685.47 425.94 695.69 455.55   C 700.57 469.68 704.40 485.55 705.16 501.24   Q 705.91 516.70 704.89 528.99   C 703.38 547.13 697.77 565.27 690.03 582.53   C 683.48 597.13 673.22 611.28 662.34 623.08   Q 656.96 628.92 647.44 636.91   Q 642.05 641.45 634.78 645.58   C 630.00 648.30 623.25 653.30 617.16 656.08   Q 608.04 660.25 599.56 661.72   Q 596.62 662.23 596.65 664.97   Q 597.18 702.34 597.16 707.01   A 0.71 0.70 86.4 0 0 597.95 707.71   Q 602.27 707.16 606.32 706.05   Q 619.28 702.48 628.56 699.04   C 636.27 696.19 643.97 691.18 652.73 686.07   Q 659.89 681.89 664.74 678.22   Q 690.15 658.95 708.92 632.98   Q 711.82 628.98 715.05 623.16   Q 716.87 619.86 720.82 613.10   C 728.47 599.98 733.96 585.11 738.60 568.92   C 747.72 537.12 748.17 502.42 742.13 470.21   Q 733.34 423.41 704.78 385.50   C 696.95 375.10 689.72 366.76 680.60 358.99   Q 665.36 346.00 648.70 336.61   A 1.91 1.91 0.0 0 0 646.84 336.61   Q 634.43 343.51 620.06 340.41   Q 616.22 339.58 613.85 338.18   C 604.65 332.74 597.75 325.58 594.04 315.49   Q 588.90 301.53 593.03 285.98   Q 595.92 275.09 604.45 266.15   Q 607.67 262.77 609.81 261.59   Q 623.76 253.93 639.09 257.68   Q 647.34 259.70 653.88 266.39   Q 665.96 278.73 666.92 295.85   Q 667.13 299.57 670.33 301.24   Q 678.87 305.70 684.03 309.48   C 692.98 316.06 704.85 324.50 713.18 333.40   C 722.84 343.72 730.15 352.19 737.39 362.25   Q 742.79 369.75 743.29 370.88   Q 743.30 370.89 748.82 380.12   Q 761.32 400.98 768.91 421.83   Q 782.58 459.35 784.83 499.50   Q 785.78 516.32 784.57 529.25   Q 783.13 544.65 780.70 559.63   C 777.93 576.71 772.66 592.79 766.64 608.42   Q 765.60 611.12 756.07 630.57   Q 752.27 638.32 740.57 656.08   Q 732.37 668.52 725.16 676.66   Q 721.97 680.25 712.02 690.77   Q 706.30 696.81 700.86 701.31   C 693.71 707.22 683.82 715.27 675.68 720.17   C 662.17 728.30 648.35 736.31 633.40 741.48   Q 606.97 750.61 580.89 753.15   Q 570.09 754.20 559.35 753.50   A 0.71 0.71 0.0 0 1 558.68 752.79   L 558.68 625.09   A 0.56 0.56 0.0 0 1 559.28 624.53   C 568.75 625.19 578.84 623.43 588.26 621.12   Q 599.01 618.48 607.77 613.48   C 618.96 607.08 628.99 600.60 637.24 591.10   Q 659.21 565.80 665.01 534.32   Q 670.46 504.76 661.50 475.69   C 657.16 461.60 649.64 448.59 640.94 437.35   C 635.60 430.45 627.66 424.28 619.85 418.09   C 612.49 412.25 605.55 409.00 597.00 406.49   A 1.57 1.57 0.0 0 1 595.87 404.98   L 595.87 364.29   A 0.98 0.98 0.0 0 1 596.98 363.32   Q 602.53 364.05 606.74 365.52   C 620.14 370.20 635.11 377.27 646.65 387.36   Q 646.80 387.49 647.21 387.61   A 1.07 1.03 -16.2 0 1 647.57 387.80   Z"/>
		<path fill="#1daa9f" d="   M 486.93 330.74   C 475.22 336.63 465.92 343.10 454.84 352.10   Q 439.07 364.89 427.03 380.27   Q 423.61 384.63 418.27 391.82   C 414.62 396.75 412.11 401.19 408.93 406.23   Q 407.67 408.23 405.66 412.28   Q 403.81 416.01 398.89 425.88   Q 396.07 431.55 389.01 451.42   C 388.15 453.85 387.96 456.05 387.36 457.90   A 0.58 0.58 0.0 0 1 386.23 457.74   Q 385.90 451.25 384.58 445.94   C 382.90 439.20 381.02 434.02 379.28 426.68   Q 375.97 412.79 370.60 399.36   Q 370.04 397.94 371.05 395.82   Q 376.70 384.07 382.05 374.84   C 390.54 360.20 402.02 345.78 413.74 333.50   Q 415.74 331.41 425.20 322.78   Q 430.38 318.06 437.41 312.93   Q 459.64 296.70 483.81 286.08   C 495.65 280.88 506.11 278.48 519.52 274.75   C 535.70 270.24 553.26 268.89 569.40 269.12   A 0.35 0.35 0.0 0 1 569.75 269.47   L 569.75 397.76   A 0.56 0.55 -89.0 0 1 569.18 398.32   C 549.98 397.47 529.74 402.40 513.59 413.47   C 502.99 420.73 493.12 428.29 485.94 438.68   C 481.77 444.72 477.52 450.26 474.24 456.55   C 469.35 465.93 465.66 476.83 463.70 485.44   Q 459.96 501.88 460.57 518.00   Q 460.66 520.32 462.38 532.09   Q 463.53 539.87 465.52 545.95   Q 470.63 561.48 475.15 569.38   Q 483.70 584.34 494.99 595.22   Q 500.26 600.29 512.06 608.40   Q 519.84 613.75 531.25 617.85   A 0.93 0.92 -80.1 0 1 531.86 618.72   L 531.86 660.58   A 0.86 0.86 0.0 0 1 530.82 661.42   Q 527.46 660.70 525.38 659.86   Q 507.80 652.77 500.71 649.83   Q 496.65 648.14 486.58 640.89   Q 484.33 639.27 476.03 632.48   Q 469.87 627.43 465.82 623.26   C 438.37 594.96 422.45 554.90 421.59 515.98   Q 421.37 506.35 423.27 490.21   C 424.79 477.26 428.71 464.20 433.11 452.23   C 437.54 440.16 444.46 428.27 451.82 416.82   C 456.89 408.93 464.59 401.35 471.09 394.83   Q 476.81 389.10 484.09 383.97   Q 495.01 376.28 502.56 371.83   C 507.89 368.69 512.49 366.47 518.72 364.63   Q 524.28 363.00 529.71 361.46   Q 532.03 360.80 531.99 358.25   Q 531.56 331.92 531.61 315.51   A 0.29 0.28 82.4 0 0 531.25 315.23   Q 524.69 317.08 516.21 319.12   C 506.19 321.52 496.69 325.84 486.93 330.74   Z"/>
		<path fill="#1daa9f" d="   M 337.90 392.81   A 0.56 0.55 -17.8 0 0 337.44 393.69   Q 339.53 396.57 339.78 397.21   C 342.29 403.55 347.48 411.84 349.78 419.23   C 353.64 431.62 355.90 439.68 359.09 450.96   Q 361.38 459.02 363.21 467.48   Q 368.46 491.71 372.43 510.17   Q 380.47 547.58 386.97 568.56   Q 393.17 588.59 402.72 607.56   Q 411.17 624.33 421.51 637.53   Q 428.21 646.08 440.90 659.36   C 447.68 666.44 455.56 672.01 463.47 677.78   Q 469.79 682.39 477.94 686.54   A 3.17 3.14 -43.5 0 0 480.68 686.60   C 483.55 685.31 486.17 683.73 488.80 682.93   C 499.54 679.67 513.30 680.81 521.73 689.17   Q 528.35 695.75 532.74 703.01   C 536.91 709.90 537.71 717.12 537.99 725.02   Q 538.12 728.39 537.18 731.94   Q 534.78 741.09 529.86 749.84   Q 527.33 754.33 522.71 757.94   Q 516.01 763.16 509.26 764.63   Q 504.15 765.75 496.81 765.82   Q 489.40 765.89 482.54 761.81   Q 462.61 749.96 461.23 726.29   Q 461.13 724.62 458.84 723.41   Q 449.82 718.63 441.88 712.90   C 428.17 703.02 414.31 691.61 404.01 679.73   C 394.75 669.05 387.73 661.01 381.19 649.59   C 374.57 637.99 368.23 627.26 363.73 615.35   C 356.75 596.87 351.80 584.50 347.36 567.31   C 344.19 555.05 342.22 548.73 340.22 539.69   C 337.83 528.88 333.80 512.90 331.25 499.70   Q 328.06 483.12 325.41 471.05   Q 318.69 440.42 305.31 411.89   A 5.96 5.77 13.6 0 0 304.50 410.61   Q 295.59 399.88 283.18 397.64   Q 274.88 396.14 261.25 395.75   Q 245.66 395.30 229.18 396.22   A 0.39 0.38 88.6 0 1 228.78 395.83   L 228.78 271.00   A 0.60 0.60 0.0 0 1 229.38 270.40   L 342.61 270.40   A 0.76 0.76 0.0 0 1 343.37 271.17   Q 343.06 299.16 343.27 346.25   Q 343.33 359.85 343.70 366.16   C 344.22 374.97 343.10 382.69 343.07 391.50   A 1.31 1.30 90.0 0 1 341.77 392.81   L 337.90 392.81   Z"/>
		<path fill="#1daa9f" d="   M 306.01 515.60   A 0.45 0.45 0.0 0 1 306.80 515.82   Q 307.23 518.49 309.87 531.41   Q 311.20 537.92 313.68 546.85   Q 318.65 564.69 323.72 583.30   Q 325.79 590.90 331.39 605.38   C 333.11 609.83 334.67 617.06 336.96 622.29   Q 340.33 629.98 343.40 636.31   A 5.02 4.87 32.8 0 1 343.90 638.47   L 343.90 751.98   A 0.64 0.64 0.0 0 1 343.26 752.62   L 229.22 752.62   A 0.59 0.59 0.0 0 1 228.63 752.03   L 228.63 523.22   A 1.25 1.24 13.9 0 0 227.96 522.12   C 224.93 520.53 222.60 518.49 220.07 516.09   C 213.37 509.72 211.85 503.44 209.79 494.43   Q 208.35 488.17 208.48 484.43   Q 209.07 466.80 219.99 454.67   Q 233.26 439.92 253.73 443.11   Q 259.52 444.01 262.22 445.49   C 267.72 448.50 273.62 452.62 276.93 458.27   C 282.39 467.62 286.05 475.14 285.71 484.93   C 285.20 499.87 280.69 513.58 267.83 522.14   A 2.83 2.82 -16.9 0 0 266.57 524.49   L 266.57 709.96   A 0.50 0.49 87.4 0 0 267.11 710.46   Q 272.06 710.07 274.38 710.10   Q 286.61 710.22 304.70 710.70   A 1.19 1.19 0.0 0 0 305.93 709.51   Q 305.94 587.41 305.87 515.94   Q 305.87 515.76 306.01 515.60   Z"/>
	</g>
	<g>
		<ellipse rx="16.70" ry="15.09" fill="#1e2126" cx="0.00" transform="translate(628.99,298.76) rotate(-88.0)" cy="0.00"/>
		<rect x="-19.64" y="-21.56" transform="translate(286.25,334.27) rotate(-0.1)" fill="#1e2126" width="39.28" rx="0.27" height="43.12"/>
		<ellipse rx="16.68" ry="15.37" fill="#1e2126" cx="0.00" transform="translate(247.13,485.07) rotate(-89.1)" cy="0.00"/>
		<ellipse rx="16.74" ry="14.98" fill="#1e2126" cx="0.00" transform="translate(499.65,723.83) rotate(-90.2)" cy="0.00"/>
	</g>
</svg>